<mxfile host="app.diagrams.net" modified="2024-01-04T18:23:59.792Z" agent="Mozilla/5.0 (Windows NT 10.0; Win64; x64) AppleWebKit/537.36 (KHTML, like Gecko) Chrome/119.0.0.0 Safari/537.36 OPR/105.0.0.0" etag="apCxWWra1SUOF9YozMkB" version="22.1.16" type="device">
  <diagram id="C5RBs43oDa-KdzZeNtuy" name="Page-1">
    <mxGraphModel dx="1665" dy="639" grid="1" gridSize="10" guides="1" tooltips="1" connect="1" arrows="1" fold="1" page="1" pageScale="1" pageWidth="827" pageHeight="1169" math="0" shadow="0">
      <root>
        <mxCell id="WIyWlLk6GJQsqaUBKTNV-0" />
        <mxCell id="WIyWlLk6GJQsqaUBKTNV-1" parent="WIyWlLk6GJQsqaUBKTNV-0" />
        <mxCell id="VNTDLv_vg-DaczmZ4jtN-0" style="edgeStyle=orthogonalEdgeStyle;rounded=0;orthogonalLoop=1;jettySize=auto;html=1;exitX=0.75;exitY=0.1;exitDx=0;exitDy=0;exitPerimeter=0;entryX=0.5;entryY=1;entryDx=0;entryDy=0;" parent="WIyWlLk6GJQsqaUBKTNV-1" source="0ND_t_Y78QhuHX3U0cQd-55" target="0ND_t_Y78QhuHX3U0cQd-73" edge="1">
          <mxGeometry relative="1" as="geometry">
            <mxPoint x="163.75" y="377.0000000000002" as="targetPoint" />
            <Array as="points">
              <mxPoint x="205" y="436" />
            </Array>
          </mxGeometry>
        </mxCell>
        <mxCell id="0ND_t_Y78QhuHX3U0cQd-55" value="dev" style="shape=umlActor;verticalLabelPosition=bottom;verticalAlign=top;html=1;" parent="WIyWlLk6GJQsqaUBKTNV-1" vertex="1">
          <mxGeometry x="190" y="430" width="30" height="60" as="geometry" />
        </mxCell>
        <mxCell id="0ND_t_Y78QhuHX3U0cQd-74" value="" style="edgeStyle=orthogonalEdgeStyle;rounded=0;orthogonalLoop=1;jettySize=auto;html=1;" parent="WIyWlLk6GJQsqaUBKTNV-1" target="0ND_t_Y78QhuHX3U0cQd-73" edge="1">
          <mxGeometry relative="1" as="geometry">
            <mxPoint x="205.0689655172414" y="360" as="sourcePoint" />
          </mxGeometry>
        </mxCell>
        <mxCell id="0ND_t_Y78QhuHX3U0cQd-73" value="Data Preparation" style="rounded=1;whiteSpace=wrap;html=1;verticalAlign=top;" parent="WIyWlLk6GJQsqaUBKTNV-1" vertex="1">
          <mxGeometry x="160" y="226.87" width="90" height="42" as="geometry" />
        </mxCell>
        <mxCell id="0ND_t_Y78QhuHX3U0cQd-86" value="" style="edgeStyle=orthogonalEdgeStyle;rounded=0;orthogonalLoop=1;jettySize=auto;html=1;" parent="WIyWlLk6GJQsqaUBKTNV-1" source="0ND_t_Y78QhuHX3U0cQd-83" target="0ND_t_Y78QhuHX3U0cQd-85" edge="1">
          <mxGeometry relative="1" as="geometry" />
        </mxCell>
        <mxCell id="0ND_t_Y78QhuHX3U0cQd-83" value="Model&amp;nbsp;&lt;br&gt;Packaging" style="rounded=1;whiteSpace=wrap;html=1;verticalAlign=top;" parent="WIyWlLk6GJQsqaUBKTNV-1" vertex="1">
          <mxGeometry x="970" y="215.25" width="90" height="42" as="geometry" />
        </mxCell>
        <mxCell id="VNTDLv_vg-DaczmZ4jtN-17" value="" style="edgeStyle=orthogonalEdgeStyle;rounded=0;orthogonalLoop=1;jettySize=auto;html=1;" parent="WIyWlLk6GJQsqaUBKTNV-1" source="0ND_t_Y78QhuHX3U0cQd-85" target="VNTDLv_vg-DaczmZ4jtN-16" edge="1">
          <mxGeometry relative="1" as="geometry" />
        </mxCell>
        <mxCell id="0ND_t_Y78QhuHX3U0cQd-85" value="BentoML Configuration for Data Serialization" style="rounded=1;whiteSpace=wrap;html=1;verticalAlign=top;" parent="WIyWlLk6GJQsqaUBKTNV-1" vertex="1">
          <mxGeometry x="1070" y="285.25" width="90" height="74.75" as="geometry" />
        </mxCell>
        <mxCell id="0ND_t_Y78QhuHX3U0cQd-100" value="data flows" style="endArrow=open;endSize=12;dashed=1;html=1;rounded=0;exitX=0.423;exitY=-0.088;exitDx=0;exitDy=0;exitPerimeter=0;entryX=0;entryY=0.5;entryDx=0;entryDy=0;" parent="WIyWlLk6GJQsqaUBKTNV-1" source="0ND_t_Y78QhuHX3U0cQd-73" edge="1">
          <mxGeometry width="160" relative="1" as="geometry">
            <mxPoint x="130" y="89.07" as="sourcePoint" />
            <mxPoint x="660" y="90.12" as="targetPoint" />
            <Array as="points">
              <mxPoint x="198" y="89" />
            </Array>
          </mxGeometry>
        </mxCell>
        <mxCell id="VNTDLv_vg-DaczmZ4jtN-39" value="document upload" style="edgeStyle=orthogonalEdgeStyle;rounded=0;orthogonalLoop=1;jettySize=auto;html=1;entryX=-0.016;entryY=0.517;entryDx=0;entryDy=0;entryPerimeter=0;" parent="WIyWlLk6GJQsqaUBKTNV-1" target="QMm8UBXjtR73yqpKvYMj-1" edge="1">
          <mxGeometry relative="1" as="geometry">
            <mxPoint x="970" y="550" as="targetPoint" />
            <mxPoint x="732.4686520376176" y="545.2758620689656" as="sourcePoint" />
          </mxGeometry>
        </mxCell>
        <mxCell id="VNTDLv_vg-DaczmZ4jtN-7" value="Model Training" style="rounded=1;whiteSpace=wrap;html=1;align=center;verticalAlign=top;" parent="WIyWlLk6GJQsqaUBKTNV-1" vertex="1">
          <mxGeometry x="280" y="146.12" width="360" height="203.5" as="geometry" />
        </mxCell>
        <mxCell id="VNTDLv_vg-DaczmZ4jtN-8" value="ML Framework" style="rounded=1;whiteSpace=wrap;html=1;verticalAlign=top;" parent="WIyWlLk6GJQsqaUBKTNV-1" vertex="1">
          <mxGeometry x="294" y="186.25" width="326" height="123.75" as="geometry" />
        </mxCell>
        <mxCell id="VNTDLv_vg-DaczmZ4jtN-3" value="&lt;div&gt;Multinomial Naive Bayes&lt;/div&gt;&lt;div&gt;&lt;br&gt;&lt;/div&gt;" style="rounded=0;whiteSpace=wrap;html=1;verticalAlign=middle;" parent="WIyWlLk6GJQsqaUBKTNV-1" vertex="1">
          <mxGeometry x="300" y="212" width="90" height="68" as="geometry" />
        </mxCell>
        <mxCell id="VNTDLv_vg-DaczmZ4jtN-4" value="Logistic Regression" style="rounded=0;whiteSpace=wrap;html=1;" parent="WIyWlLk6GJQsqaUBKTNV-1" vertex="1">
          <mxGeometry x="400" y="210" width="100" height="72" as="geometry" />
        </mxCell>
        <mxCell id="VNTDLv_vg-DaczmZ4jtN-12" value="" style="edgeStyle=orthogonalEdgeStyle;rounded=0;orthogonalLoop=1;jettySize=auto;html=1;" parent="WIyWlLk6GJQsqaUBKTNV-1" target="VNTDLv_vg-DaczmZ4jtN-9" edge="1">
          <mxGeometry relative="1" as="geometry">
            <mxPoint x="640" y="236" as="sourcePoint" />
            <Array as="points">
              <mxPoint x="620" y="236" />
              <mxPoint x="620" y="236" />
            </Array>
          </mxGeometry>
        </mxCell>
        <mxCell id="VNTDLv_vg-DaczmZ4jtN-5" value="SVM" style="rounded=0;whiteSpace=wrap;html=1;" parent="WIyWlLk6GJQsqaUBKTNV-1" vertex="1">
          <mxGeometry x="510" y="212" width="90" height="69" as="geometry" />
        </mxCell>
        <mxCell id="VNTDLv_vg-DaczmZ4jtN-9" value="Model Evaluation" style="rounded=1;whiteSpace=wrap;html=1;verticalAlign=top;" parent="WIyWlLk6GJQsqaUBKTNV-1" vertex="1">
          <mxGeometry x="662.5" y="215.25" width="90" height="42" as="geometry" />
        </mxCell>
        <mxCell id="VNTDLv_vg-DaczmZ4jtN-16" value="Model Serving" style="rounded=1;whiteSpace=wrap;html=1;verticalAlign=middle;" parent="WIyWlLk6GJQsqaUBKTNV-1" vertex="1">
          <mxGeometry x="1058.75" y="440" width="112.5" height="40" as="geometry" />
        </mxCell>
        <mxCell id="VNTDLv_vg-DaczmZ4jtN-20" value="Model Testing" style="rounded=1;whiteSpace=wrap;html=1;verticalAlign=middle;" parent="WIyWlLk6GJQsqaUBKTNV-1" vertex="1">
          <mxGeometry x="663.75" y="280" width="87.5" height="40" as="geometry" />
        </mxCell>
        <mxCell id="VNTDLv_vg-DaczmZ4jtN-37" value="" style="edgeStyle=orthogonalEdgeStyle;rounded=0;orthogonalLoop=1;jettySize=auto;html=1;" parent="WIyWlLk6GJQsqaUBKTNV-1" source="VNTDLv_vg-DaczmZ4jtN-25" edge="1">
          <mxGeometry relative="1" as="geometry">
            <mxPoint x="702.5" y="570" as="targetPoint" />
          </mxGeometry>
        </mxCell>
        <mxCell id="VNTDLv_vg-DaczmZ4jtN-25" value="User" style="shape=umlActor;verticalLabelPosition=bottom;verticalAlign=top;html=1;outlineConnect=0;" parent="WIyWlLk6GJQsqaUBKTNV-1" vertex="1">
          <mxGeometry x="687.5" y="610" width="30" height="60" as="geometry" />
        </mxCell>
        <mxCell id="VNTDLv_vg-DaczmZ4jtN-40" value="" style="edgeStyle=orthogonalEdgeStyle;rounded=0;orthogonalLoop=1;jettySize=auto;html=1;" parent="WIyWlLk6GJQsqaUBKTNV-1" edge="1">
          <mxGeometry relative="1" as="geometry">
            <Array as="points">
              <mxPoint x="1097.53" y="500" />
              <mxPoint x="1097.53" y="500" />
            </Array>
            <mxPoint x="1097.5300000000004" y="526.0000000000009" as="sourcePoint" />
            <mxPoint x="1097.5300000000002" y="480" as="targetPoint" />
          </mxGeometry>
        </mxCell>
        <mxCell id="QMm8UBXjtR73yqpKvYMj-0" value="Classification result" style="rounded=1;whiteSpace=wrap;html=1;verticalAlign=middle;strokeWidth=4;" parent="WIyWlLk6GJQsqaUBKTNV-1" vertex="1">
          <mxGeometry x="910" y="440" width="102.5" height="40" as="geometry" />
        </mxCell>
        <mxCell id="QMm8UBXjtR73yqpKvYMj-1" value="API endpoint" style="rounded=1;whiteSpace=wrap;html=1;verticalAlign=middle;" parent="WIyWlLk6GJQsqaUBKTNV-1" vertex="1">
          <mxGeometry x="1060" y="530" width="102.5" height="40" as="geometry" />
        </mxCell>
        <mxCell id="QMm8UBXjtR73yqpKvYMj-2" value="" style="edgeStyle=orthogonalEdgeStyle;rounded=0;orthogonalLoop=1;jettySize=auto;html=1;exitX=0.5;exitY=1;exitDx=0;exitDy=0;entryX=0.402;entryY=0;entryDx=0;entryDy=0;entryPerimeter=0;" parent="WIyWlLk6GJQsqaUBKTNV-1" edge="1">
          <mxGeometry relative="1" as="geometry">
            <mxPoint x="1127.5" y="480" as="sourcePoint" />
            <mxPoint x="1127.5" y="530" as="targetPoint" />
            <Array as="points">
              <mxPoint x="1127.5" y="482" />
              <mxPoint x="1127.5" y="500" />
              <mxPoint x="1127.5" y="500" />
            </Array>
          </mxGeometry>
        </mxCell>
        <mxCell id="QMm8UBXjtR73yqpKvYMj-3" value="" style="endArrow=classic;html=1;rounded=0;exitX=1;exitY=0.5;exitDx=0;exitDy=0;entryX=0;entryY=0.5;entryDx=0;entryDy=0;" parent="WIyWlLk6GJQsqaUBKTNV-1" source="0ND_t_Y78QhuHX3U0cQd-73" target="VNTDLv_vg-DaczmZ4jtN-7" edge="1">
          <mxGeometry width="50" height="50" relative="1" as="geometry">
            <mxPoint x="420" y="310" as="sourcePoint" />
            <mxPoint x="470" y="260" as="targetPoint" />
          </mxGeometry>
        </mxCell>
        <mxCell id="QMm8UBXjtR73yqpKvYMj-4" value="" style="endArrow=classic;html=1;rounded=0;exitX=0.5;exitY=1;exitDx=0;exitDy=0;entryX=0.5;entryY=0;entryDx=0;entryDy=0;" parent="WIyWlLk6GJQsqaUBKTNV-1" source="QMm8UBXjtR73yqpKvYMj-5" target="VNTDLv_vg-DaczmZ4jtN-9" edge="1">
          <mxGeometry width="50" height="50" relative="1" as="geometry">
            <mxPoint x="840" y="140" as="sourcePoint" />
            <mxPoint x="780" y="330" as="targetPoint" />
          </mxGeometry>
        </mxCell>
        <mxCell id="QMm8UBXjtR73yqpKvYMj-5" value="Zero Shot Transformer" style="rounded=1;whiteSpace=wrap;html=1;verticalAlign=top;" parent="WIyWlLk6GJQsqaUBKTNV-1" vertex="1">
          <mxGeometry x="662.5" y="70" width="90" height="42" as="geometry" />
        </mxCell>
        <mxCell id="QMm8UBXjtR73yqpKvYMj-6" value="" style="endArrow=classic;html=1;rounded=0;exitX=0.5;exitY=1;exitDx=0;exitDy=0;entryX=0.5;entryY=0;entryDx=0;entryDy=0;" parent="WIyWlLk6GJQsqaUBKTNV-1" source="VNTDLv_vg-DaczmZ4jtN-9" target="VNTDLv_vg-DaczmZ4jtN-20" edge="1">
          <mxGeometry width="50" height="50" relative="1" as="geometry">
            <mxPoint x="730" y="380" as="sourcePoint" />
            <mxPoint x="780" y="330" as="targetPoint" />
          </mxGeometry>
        </mxCell>
        <mxCell id="QMm8UBXjtR73yqpKvYMj-7" value="" style="endArrow=classic;html=1;rounded=0;exitX=1;exitY=0.5;exitDx=0;exitDy=0;entryX=1;entryY=0.5;entryDx=0;entryDy=0;" parent="WIyWlLk6GJQsqaUBKTNV-1" source="VNTDLv_vg-DaczmZ4jtN-20" target="VNTDLv_vg-DaczmZ4jtN-9" edge="1">
          <mxGeometry width="50" height="50" relative="1" as="geometry">
            <mxPoint x="730" y="380" as="sourcePoint" />
            <mxPoint x="780" y="330" as="targetPoint" />
            <Array as="points">
              <mxPoint x="800" y="300" />
              <mxPoint x="800" y="236" />
            </Array>
          </mxGeometry>
        </mxCell>
        <mxCell id="QMm8UBXjtR73yqpKvYMj-9" value="BentoML integration" style="rounded=1;whiteSpace=wrap;html=1;verticalAlign=top;" parent="WIyWlLk6GJQsqaUBKTNV-1" vertex="1">
          <mxGeometry x="850" y="215.25" width="90" height="42" as="geometry" />
        </mxCell>
        <mxCell id="QMm8UBXjtR73yqpKvYMj-10" value="" style="endArrow=classic;html=1;rounded=0;exitX=1;exitY=0.25;exitDx=0;exitDy=0;entryX=0;entryY=0.25;entryDx=0;entryDy=0;" parent="WIyWlLk6GJQsqaUBKTNV-1" source="VNTDLv_vg-DaczmZ4jtN-9" target="QMm8UBXjtR73yqpKvYMj-9" edge="1">
          <mxGeometry width="50" height="50" relative="1" as="geometry">
            <mxPoint x="730" y="380" as="sourcePoint" />
            <mxPoint x="780" y="330" as="targetPoint" />
          </mxGeometry>
        </mxCell>
        <mxCell id="QMm8UBXjtR73yqpKvYMj-11" value="" style="endArrow=classic;html=1;rounded=0;exitX=1;exitY=0.409;exitDx=0;exitDy=0;exitPerimeter=0;entryX=0.026;entryY=0.393;entryDx=0;entryDy=0;entryPerimeter=0;" parent="WIyWlLk6GJQsqaUBKTNV-1" source="QMm8UBXjtR73yqpKvYMj-9" target="0ND_t_Y78QhuHX3U0cQd-83" edge="1">
          <mxGeometry width="50" height="50" relative="1" as="geometry">
            <mxPoint x="730" y="380" as="sourcePoint" />
            <mxPoint x="780" y="330" as="targetPoint" />
          </mxGeometry>
        </mxCell>
        <mxCell id="QMm8UBXjtR73yqpKvYMj-14" value="" style="endArrow=classic;html=1;rounded=0;exitX=0;exitY=0.5;exitDx=0;exitDy=0;entryX=1;entryY=0.5;entryDx=0;entryDy=0;" parent="WIyWlLk6GJQsqaUBKTNV-1" source="VNTDLv_vg-DaczmZ4jtN-16" target="QMm8UBXjtR73yqpKvYMj-0" edge="1">
          <mxGeometry width="50" height="50" relative="1" as="geometry">
            <mxPoint x="730" y="380" as="sourcePoint" />
            <mxPoint x="780" y="330" as="targetPoint" />
          </mxGeometry>
        </mxCell>
        <mxCell id="QMm8UBXjtR73yqpKvYMj-15" value="GUI" style="rounded=1;whiteSpace=wrap;html=1;verticalAlign=top;" parent="WIyWlLk6GJQsqaUBKTNV-1" vertex="1">
          <mxGeometry x="672.5" y="535" width="60" height="30" as="geometry" />
        </mxCell>
      </root>
    </mxGraphModel>
  </diagram>
</mxfile>
